<svg version="1.1" xmlns="http://www.w3.org/2000/svg" viewBox="0 0 989.0981304966299 243.34276569817644" width="2967.2943914898897" height="730.0282970945293">
  <!-- svg-source:excalidraw -->
  
  <defs>
    <style class="style-fonts">
      @font-face {
        font-family: "Virgil";
        src: url("https://excalidraw.com/Virgil.woff2");
      }
      @font-face {
        font-family: "Cascadia";
        src: url("https://excalidraw.com/Cascadia.woff2");
      }
      @font-face {
        font-family: "Assistant";
        src: url("https://excalidraw.com/Assistant-Regular.woff2");
      }
    </style>
    
  </defs>
  <rect x="0" y="0" width="989.0981304966299" height="243.34276569817644" fill="#ffffff"></rect><g stroke-linecap="round" transform="translate(282.0668804966299 70.84276569817644) rotate(0 100.7890625 22)"><path d="M11 0 C77.47 -2.22, 142.69 -0.95, 190.58 0 M11 0 C56.25 0.89, 102.9 0.97, 190.58 0 M190.58 0 C199.34 -1.32, 199.67 4.27, 201.58 11 M190.58 0 C198.64 1.78, 201.93 1.94, 201.58 11 M201.58 11 C202.58 20.6, 201.29 25.94, 201.58 33 M201.58 11 C201.45 16.12, 200.98 20.99, 201.58 33 M201.58 33 C202.06 39.19, 197.67 45.44, 190.58 44 M201.58 33 C199.32 40.76, 199.62 45.5, 190.58 44 M190.58 44 C140.19 40.72, 91.3 43.48, 11 44 M190.58 44 C148.08 44.11, 105.44 42.98, 11 44 M11 44 C3.91 44.03, 1.07 42.27, 0 33 M11 44 C3 42.45, -0.21 40.41, 0 33 M0 33 C-1.93 29.23, -1.59 23.46, 0 11 M0 33 C-0.93 24.34, 0.58 17.28, 0 11 M0 11 C0.87 5.59, 4.24 0.28, 11 0 M0 11 C1.76 1.64, 3.73 -0.6, 11 0" stroke="#1e1e1e" stroke-width="2" fill="none"></path></g><g transform="translate(294.82600525248927 80.34276569817644) rotate(0 88.02993774414062 12.5)"><text x="88.02993774414062" y="17.52" font-family="Virgil, Segoe UI Emoji" font-size="20px" fill="#1e1e1e" text-anchor="middle" style="white-space: pre;" direction="ltr" dominant-baseline="alphabetic">Leader Database</text></g><g stroke-linecap="round" transform="translate(736.9340679966299 46.342765698176436) rotate(0 121.08203125 22)"><path d="M11 0 C93.64 1.17, 178.46 0.87, 231.16 0 M11 0 C55.63 0.95, 101.3 1.04, 231.16 0 M231.16 0 C236.59 0.6, 242.8 5.21, 242.16 11 M231.16 0 C238.84 -1.73, 243.72 1.6, 242.16 11 M242.16 11 C242.2 16.4, 240.98 25.85, 242.16 33 M242.16 11 C241.33 17.15, 242.34 23.39, 242.16 33 M242.16 33 C241.92 41.77, 236.53 44.37, 231.16 44 M242.16 33 C243.87 41.83, 238.06 42.08, 231.16 44 M231.16 44 C186.04 43.33, 137.08 41.33, 11 44 M231.16 44 C165.67 43.55, 101.04 44.37, 11 44 M11 44 C4.73 45.93, -0.58 38.98, 0 33 M11 44 C3.46 44.07, -1.77 41.69, 0 33 M0 33 C-1.26 28.74, 1.18 23.66, 0 11 M0 33 C0.76 24.25, 0.65 17.2, 0 11 M0 11 C0.58 3.94, 5.19 -1.76, 11 0 M0 11 C0.06 3.06, 1.9 -0.6, 11 0" stroke="#1e1e1e" stroke-width="2" fill="none"></path></g><g transform="translate(757.92617157329 55.842765698176436) rotate(0 100.08992767333984 12.5)"><text x="100.08992767333984" y="17.52" font-family="Virgil, Segoe UI Emoji" font-size="20px" fill="#1e1e1e" text-anchor="middle" style="white-space: pre;" direction="ltr" dominant-baseline="alphabetic">Follower Database 1</text></g><g stroke-linecap="round" transform="translate(736.9340679966299 189.34276569817644) rotate(0 121.08203125 22)"><path d="M11 0 C68.09 -0.35, 125.02 -1.93, 231.16 0 M11 0 C59.12 0.88, 105.17 1.71, 231.16 0 M231.16 0 C239.13 1.54, 242.47 2.17, 242.16 11 M231.16 0 C240.06 -2.07, 242.21 5.04, 242.16 11 M242.16 11 C240.84 20.81, 242.05 26.92, 242.16 33 M242.16 11 C242.24 16.96, 241.87 24.77, 242.16 33 M242.16 33 C240.2 40.7, 239.98 45.3, 231.16 44 M242.16 33 C241.72 38.41, 236.45 44.04, 231.16 44 M231.16 44 C182.5 43.96, 135.99 44.76, 11 44 M231.16 44 C161.06 42.22, 91.22 43.04, 11 44 M11 44 C3.08 42.65, -0.18 40.4, 0 33 M11 44 C1.9 45.36, -2.15 38.26, 0 33 M0 33 C1.14 24.89, 1.78 15.37, 0 11 M0 33 C0.31 29.53, 0.17 24.28, 0 11 M0 11 C1.53 1.9, 3.72 -0.53, 11 0 M0 11 C-1.77 3.07, 5.92 -0.46, 11 0" stroke="#1e1e1e" stroke-width="2" fill="none"></path></g><g transform="translate(753.5161755405752 198.84276569817644) rotate(0 104.49992370605469 12.5)"><text x="104.49992370605469" y="17.52" font-family="Virgil, Segoe UI Emoji" font-size="20px" fill="#1e1e1e" text-anchor="middle" style="white-space: pre;" direction="ltr" dominant-baseline="alphabetic">Follower Database 2</text></g><g mask="url(#mask-mGYqddhpzTXH2e416jXL1)" stroke-linecap="round"><g transform="translate(484.1446929966296 71.6277656981764) rotate(0 123.50750000000016 -13.892499999999984)"><path d="M0.86 -0.79 C21.74 -5.21, 83.91 -25, 125 -27.42 C166.09 -29.85, 227.03 -17.06, 247.4 -15.36 M-0.15 1.41 C21.11 -3.31, 85.95 -26.26, 127.11 -29.36 C168.28 -32.46, 226.76 -19.35, 246.83 -17.21" stroke="#1e1e1e" stroke-width="2" fill="none"></path></g><g transform="translate(484.1446929966296 71.6277656981764) rotate(0 123.50750000000016 -13.892499999999984)"><path d="M222.31 -12.34 C227.78 -15.76, 236.46 -14.56, 246.83 -17.21 M222.31 -12.34 C232.23 -14.89, 240.83 -15.23, 246.83 -17.21" stroke="#1e1e1e" stroke-width="2" fill="none"></path></g><g transform="translate(484.1446929966296 71.6277656981764) rotate(0 123.50750000000016 -13.892499999999984)"><path d="M224.92 -29.24 C229.54 -27.99, 237.5 -22.13, 246.83 -17.21 M224.92 -29.24 C233.88 -25.44, 241.49 -19.4, 246.83 -17.21" stroke="#1e1e1e" stroke-width="2" fill="none"></path></g></g><mask id="mask-mGYqddhpzTXH2e416jXL1"><rect x="0" y="0" fill="#fff" width="831.1596929966297" height="199.4127656981764"></rect><rect x="514.1797686802238" y="31.342765698176436" fill="#000" width="192.2198486328125" height="25" opacity="1"></rect></mask><g transform="translate(514.1797686802238 31.342765698176436) rotate(0 93.58850449111287 26.07242409411947)"><text x="96.10992431640625" y="17.52" font-family="Virgil, Segoe UI Emoji" font-size="20px" fill="#1e1e1e" text-anchor="middle" style="white-space: pre;" direction="ltr" dominant-baseline="alphabetic">Replicates data to</text></g><g mask="url(#mask-JjW4LgmVzJVKGSWko_EN9)" stroke-linecap="round"><g transform="translate(453.3356929966303 115.34276569817644) rotate(0 141.5079999999998 36.25599999999997)"><path d="M-1.14 0.36 C24.94 8.81, 109.95 38.05, 157.34 49.93 C204.73 61.8, 262.11 68.03, 283.2 71.61 M0.46 -0.5 C26.34 7.7, 109.58 36.13, 156.59 48.29 C203.6 60.45, 261.21 68.51, 282.53 72.46" stroke="#1e1e1e" stroke-width="2" fill="none"></path></g><g transform="translate(453.3356929966303 115.34276569817644) rotate(0 141.5079999999998 36.25599999999997)"><path d="M257.94 76.99 C267.71 76.18, 277.78 74.16, 282.53 72.46 M257.94 76.99 C263.46 76.79, 269.73 75.13, 282.53 72.46" stroke="#1e1e1e" stroke-width="2" fill="none"></path></g><g transform="translate(453.3356929966303 115.34276569817644) rotate(0 141.5079999999998 36.25599999999997)"><path d="M260.78 60.13 C269.38 65.55, 278.4 69.8, 282.53 72.46 M260.78 60.13 C265.78 63.7, 271.4 65.83, 282.53 72.46" stroke="#1e1e1e" stroke-width="2" fill="none"></path></g></g><mask id="mask-JjW4LgmVzJVKGSWko_EN9"><rect x="0" y="0" fill="#fff" width="836.3516929966304" height="287.85476569817644"></rect><rect x="514.1797686802238" y="151.84276569817644" fill="#000" width="192.2198486328125" height="25" opacity="1"></rect></mask><g transform="translate(514.1797686802238 151.84276569817644) rotate(0 80.18228793041408 -0.5197906040548901)"><text x="96.10992431640625" y="17.52" font-family="Virgil, Segoe UI Emoji" font-size="20px" fill="#1e1e1e" text-anchor="middle" style="white-space: pre;" direction="ltr" dominant-baseline="alphabetic">Replicates data to</text></g><g mask="url(#mask-tgDoMf7mLtPDxXcpZhZO1)" stroke-linecap="round"><g transform="translate(104.77769299663123 46.342765698176436) rotate(0 91.82299999999987 11.112500000000011)"><path d="M0.38 0.93 C15.34 0.63, 57.9 -4.85, 88.58 -1.4 C119.26 2.05, 168.61 17.51, 184.46 21.65 M-0.88 0.37 C14.04 0.17, 56.89 -4.01, 87.72 -0.34 C118.56 3.34, 168.09 18.8, 184.12 22.4" stroke="#1e1e1e" stroke-width="2" fill="none"></path></g><g transform="translate(104.77769299663123 46.342765698176436) rotate(0 91.82299999999987 11.112500000000011)"><path d="M159.23 24.69 C165.86 24.44, 167.91 25.03, 184.12 22.4 M159.23 24.69 C165.21 24.01, 169.06 22.92, 184.12 22.4" stroke="#1e1e1e" stroke-width="2" fill="none"></path></g><g transform="translate(104.77769299663123 46.342765698176436) rotate(0 91.82299999999987 11.112500000000011)"><path d="M163.58 8.15 C169.37 11.3, 170.53 15.27, 184.12 22.4 M163.58 8.15 C168.65 10.98, 171.59 13.36, 184.12 22.4" stroke="#1e1e1e" stroke-width="2" fill="none"></path></g></g><mask id="mask-tgDoMf7mLtPDxXcpZhZO1"><rect x="0" y="0" fill="#fff" width="388.4236929966312" height="169.56776569817643"></rect><rect x="138.49273083842854" y="33.342765698176436" fill="#000" width="109.35992431640625" height="25" opacity="1"></rect></mask><g transform="translate(138.49273083842854 33.342765698176436) rotate(0 58.077021311364206 22.929945988341387)"><text x="54.679962158203125" y="17.52" font-family="Virgil, Segoe UI Emoji" font-size="20px" fill="#1e1e1e" text-anchor="middle" style="white-space: pre;" direction="ltr" dominant-baseline="alphabetic">Read/Write</text></g><g mask="url(#mask-RtwFMSE6e-IHuh6GPK3sw)" stroke-linecap="round"><g transform="translate(104.77769299663123 139.34276569817644) rotate(0 91.82299999999987 -11.112500000000011)"><path d="M0.18 -0.9 C14.99 -1.15, 58.63 2.94, 89.21 -0.58 C119.79 -4.1, 167.78 -18.31, 183.67 -22.01 M-1.18 1.24 C13.5 1.02, 58 4.59, 88.69 0.39 C119.37 -3.81, 166.82 -20.29, 182.92 -23.97" stroke="#1e1e1e" stroke-width="2" fill="none"></path></g><g transform="translate(104.77769299663123 139.34276569817644) rotate(0 91.82299999999987 -11.112500000000011)"><path d="M162.62 -9.38 C167.74 -12.89, 174.18 -19.05, 182.92 -23.97 M162.62 -9.38 C169.19 -15.28, 177.9 -19.93, 182.92 -23.97" stroke="#1e1e1e" stroke-width="2" fill="none"></path></g><g transform="translate(104.77769299663123 139.34276569817644) rotate(0 91.82299999999987 -11.112500000000011)"><path d="M157.99 -25.84 C164.78 -23.9, 172.75 -24.59, 182.92 -23.97 M157.99 -25.84 C166.35 -25.81, 176.72 -24.54, 182.92 -23.97" stroke="#1e1e1e" stroke-width="2" fill="none"></path></g></g><mask id="mask-RtwFMSE6e-IHuh6GPK3sw"><rect x="0" y="0" fill="#fff" width="388.4236929966312" height="262.56776569817646"></rect><rect x="138.49273083842854" y="127.34276569817644" fill="#000" width="109.35992431640625" height="25" opacity="1"></rect></mask><g transform="translate(138.49273083842854 127.34276569817644) rotate(0 57.529460576764905 1.2387808119179908)"><text x="54.679962158203125" y="17.52" font-family="Virgil, Segoe UI Emoji" font-size="20px" fill="#1e1e1e" text-anchor="middle" style="white-space: pre;" direction="ltr" dominant-baseline="alphabetic">Read/Write</text></g><g mask="url(#mask-AIgTRjttl6tmatdM8NI0v)" stroke-linecap="round"><g transform="translate(426.32372353003575 172.78528852169916) rotate(0 155.12832018120253 -40.49858627612298)"><path d="M0.81 -1.08 C31.45 -10.38, 132.27 -43.39, 183.99 -56.72 C235.72 -70.05, 290.24 -76.88, 311.16 -81.05 M-0.22 0.97 C30.25 -8.6, 131.21 -45.01, 183.06 -58.47 C234.91 -71.92, 289.82 -75.99, 310.87 -79.76" stroke="#1e1e1e" stroke-width="2" fill="none"></path></g><g transform="translate(426.32372353003575 172.78528852169916) rotate(0 155.12832018120253 -40.49858627612298)"><path d="M288.76 -68.1 C294.02 -71.88, 303.98 -74.09, 310.87 -79.76 M288.76 -68.1 C296.14 -71.45, 301.6 -74.88, 310.87 -79.76" stroke="#1e1e1e" stroke-width="2" fill="none"></path></g><g transform="translate(426.32372353003575 172.78528852169916) rotate(0 155.12832018120253 -40.49858627612298)"><path d="M286.44 -85.04 C292.3 -83.5, 302.99 -80.37, 310.87 -79.76 M286.44 -85.04 C294.4 -83.37, 300.54 -81.8, 310.87 -79.76" stroke="#1e1e1e" stroke-width="2" fill="none"></path></g></g><mask id="mask-AIgTRjttl6tmatdM8NI0v"><rect x="0" y="0" fill="#fff" width="836.5803638924408" height="353.7824610739451"></rect><rect x="585.6797076450675" y="102.84276569817644" fill="#000" width="49.219970703125" height="25" opacity="1"></rect></mask><g transform="translate(585.6797076450675 102.84276569817644) rotate(0 -3.883429776363755 29.90095155964167)"><text x="24.6099853515625" y="17.52" font-family="Virgil, Segoe UI Emoji" font-size="20px" fill="#1e1e1e" text-anchor="middle" style="white-space: pre;" direction="ltr" dominant-baseline="alphabetic">Read</text></g><g stroke-opacity="0" fill-opacity="0" stroke-linecap="round" transform="translate(11.498537321880576 9.999999999999886) rotate(0 37.5010547119673 37.50105471196747)"><path d="M48.66 2.39 C55.51 4.34, 64.3 10.34, 68.75 16.14 C73.19 21.93, 75.6 29.94, 75.33 37.15 C75.06 44.36, 71.34 53.34, 67.12 59.39 C62.9 65.43, 57.01 71.13, 50 73.43 C43 75.72, 32.09 75.35, 25.08 73.16 C18.06 70.96, 12.05 66.17, 7.9 60.25 C3.75 54.33, 0.32 45.02, 0.18 37.64 C0.04 30.26, 2.9 21.93, 7.04 15.99 C11.18 10.04, 16.82 3.86, 25.02 1.97 C33.22 0.09, 49.96 3.33, 56.24 4.66 C62.53 5.99, 63.19 9.42, 62.72 9.96 M46.41 1.11 C53.41 2.3, 61.89 8.74, 66.85 14.34 C71.81 19.94, 75.71 27.47, 76.17 34.72 C76.63 41.96, 73.78 51.41, 69.6 57.8 C65.43 64.19, 57.92 70.49, 51.14 73.06 C44.36 75.63, 36.22 75.24, 28.9 73.22 C21.59 71.2, 11.97 66.46, 7.27 60.95 C2.56 55.44, 1.13 47.2, 0.66 40.15 C0.19 33.11, 0.74 24.99, 4.43 18.68 C8.12 12.37, 15.8 5.09, 22.79 2.28 C29.77 -0.53, 42.45 1.95, 46.34 1.83 C50.23 1.71, 46.43 1.31, 46.11 1.58" stroke="#1e1e1e" stroke-width="1" fill="none"></path></g><g stroke-linecap="round"><g transform="translate(30.568205543746444 61.287529411671244) rotate(0 17.45587124078247 -15.543952035238021)"><path d="M0.75 0.79 C1.19 -2.87, -0.03 -15.87, 2.75 -20.99 C5.54 -26.11, 12.84 -29.68, 17.46 -29.92 C22.09 -30.17, 27.66 -26.93, 30.52 -22.45 C33.38 -17.98, 39.72 -6.99, 34.62 -3.08 C29.52 0.82, 5.63 0.65, -0.08 0.98 M-0.32 0.16 C0.46 -3.41, 1.96 -14.36, 4.86 -19.66 C7.76 -24.96, 12.67 -31.41, 17.07 -31.65 C21.47 -31.9, 27.99 -25.89, 31.25 -21.14 C34.52 -16.4, 41.65 -6.79, 36.66 -3.19 C31.66 0.41, 7.2 -0.18, 1.29 0.45" stroke="#1e1e1e" stroke-width="1" fill="none"></path></g></g><mask></mask><g stroke-linecap="round" transform="translate(39.39815526939492 13.987033624771016) rotate(0 8.937406075280705 7.8202303158705035)"><path d="M10.41 -0.04 C12.08 0.03, 13.92 1.3, 15.23 2.6 C16.54 3.9, 18.24 6.08, 18.28 7.75 C18.32 9.43, 16.67 11.32, 15.47 12.66 C14.27 14, 12.85 15.45, 11.07 15.79 C9.28 16.13, 6.52 15.53, 4.77 14.71 C3.03 13.9, 1.38 12.47, 0.6 10.92 C-0.19 9.36, -0.56 7.05, 0.06 5.4 C0.68 3.75, 2.52 1.9, 4.32 1.01 C6.12 0.13, 9.86 0.21, 10.84 0.06 C11.83 -0.08, 10.29 0.01, 10.24 0.13 M10.75 0.53 C12.69 0.68, 15.19 1.39, 16.41 2.63 C17.63 3.87, 18.2 6.21, 18.07 7.97 C17.94 9.74, 16.86 12.01, 15.65 13.22 C14.44 14.42, 12.78 15.03, 10.8 15.21 C8.82 15.39, 5.42 15.1, 3.76 14.33 C2.1 13.56, 1.48 12.02, 0.83 10.59 C0.18 9.16, -0.68 7.36, -0.14 5.74 C0.4 4.11, 2.33 1.73, 4.07 0.85 C5.81 -0.03, 9.27 0.58, 10.3 0.46 C11.33 0.34, 10.36 0.16, 10.25 0.12" stroke="#1e1e1e" stroke-width="1" fill="none"></path></g><g transform="translate(29.03217343421602 64.9556742576442) rotate(0 19.303387910461424 8.02970077075986)"><text x="19.303387910461595" y="11.254428600297" font-family="Virgil, Segoe UI Emoji" font-size="12.847521233215751px" fill="#1e1e1e" text-anchor="middle" style="white-space: pre;" direction="ltr" dominant-baseline="alphabetic">User 1</text></g><g stroke-opacity="0" fill-opacity="0" stroke-linecap="round" transform="translate(9.999999999998181 103.78503350004735) rotate(0 38.07668932553588 38.07668932553605)"><path d="M24.64 2.09 C31.09 -0.62, 41.96 0.25, 49.18 2.36 C56.41 4.48, 63.57 8.95, 67.98 14.78 C72.39 20.61, 75.36 29.89, 75.64 37.35 C75.93 44.82, 73.77 53.52, 69.7 59.55 C65.63 65.59, 58.12 71.06, 51.22 73.59 C44.32 76.11, 35.37 76.75, 28.31 74.71 C21.26 72.68, 13.66 67.44, 8.89 61.39 C4.13 55.34, 0.03 45.81, -0.27 38.41 C-0.58 31.01, 1.55 23.25, 7.05 16.99 C12.55 10.73, 27.46 3.5, 32.75 0.83 C38.05 -1.84, 39 0.41, 38.83 0.95 M39.79 1.56 C46.96 1.23, 57.35 3.12, 63.39 7.71 C69.44 12.3, 74.44 21.93, 76.08 29.09 C77.71 36.25, 76.06 43.79, 73.21 50.66 C70.37 57.52, 65.49 66.08, 59.02 70.3 C52.55 74.51, 41.86 76.26, 34.4 75.96 C26.95 75.65, 19.96 73.11, 14.3 68.49 C8.64 63.86, 2.22 55.48, 0.45 48.22 C-1.33 40.96, 0.72 31.86, 3.67 24.91 C6.62 17.97, 11.91 10.51, 18.15 6.55 C24.39 2.58, 37.29 2.07, 41.13 1.12 C44.97 0.17, 41.21 0.35, 41.22 0.83" stroke="#1e1e1e" stroke-width="1" fill="none"></path></g><g stroke-linecap="round"><g transform="translate(29.362384284975633 155.8598174943038) rotate(0 17.723815803231446 -15.782548973160374)"><path d="M-0.83 0.88 C-0.16 -2.89, 0.78 -16.25, 3.72 -21.56 C6.66 -26.87, 12.26 -30.67, 16.82 -30.97 C21.38 -31.28, 27.97 -28.11, 31.08 -23.41 C34.2 -18.71, 40.59 -6.69, 35.5 -2.76 C30.42 1.17, 6.48 -0.35, 0.58 0.16 M0.94 0.3 C1.45 -2.8, 0.14 -14.81, 2.64 -20.36 C5.14 -25.91, 11.08 -32.66, 15.95 -33.01 C20.82 -33.35, 28.85 -27.48, 31.86 -22.42 C34.88 -17.37, 39.6 -6.28, 34.06 -2.68 C28.52 0.92, 4.18 -1.1, -1.37 -0.8" stroke="#1e1e1e" stroke-width="1" fill="none"></path></g></g><mask></mask><g stroke-linecap="round" transform="translate(38.3278721904735 107.83326739178437) rotate(0 9.07459369125445 7.940269479847814)"><path d="M8.62 0.03 C10.38 -0.17, 12.81 0.85, 14.38 1.9 C15.94 2.94, 17.53 4.69, 18 6.29 C18.48 7.88, 18.07 9.97, 17.23 11.47 C16.39 12.98, 14.69 14.65, 12.95 15.32 C11.2 15.99, 8.72 16.09, 6.77 15.49 C4.82 14.9, 2.34 13.16, 1.26 11.75 C0.19 10.34, -0.03 8.62, 0.32 7.04 C0.66 5.45, 1.9 3.4, 3.31 2.25 C4.73 1.09, 7.9 0.45, 8.8 0.09 C9.7 -0.28, 8.68 -0.09, 8.72 0.07 M10.45 -0.45 C12.45 -0.48, 14.83 1.45, 16.09 2.63 C17.34 3.81, 17.86 4.94, 17.97 6.6 C18.08 8.26, 17.93 11.09, 16.72 12.58 C15.51 14.07, 12.59 15.04, 10.71 15.55 C8.82 16.06, 7.13 16.3, 5.42 15.63 C3.72 14.97, 1.22 13.13, 0.45 11.56 C-0.32 10, 0.21 7.89, 0.83 6.24 C1.45 4.6, 2.6 2.65, 4.17 1.71 C5.75 0.76, 9.25 0.81, 10.27 0.56 C11.3 0.31, 10.31 0.13, 10.32 0.19" stroke="#1e1e1e" stroke-width="1" fill="none"></path></g><g transform="translate(24.926414320456388 159.58426772040923) rotate(0 22.47605156127338 8.152955269486597)"><text x="22.47605156127338" y="11.4271821057124" font-family="Virgil, Segoe UI Emoji" font-size="13.044728431178537px" fill="#1e1e1e" text-anchor="middle" style="white-space: pre;" direction="ltr" dominant-baseline="alphabetic">User 2</text></g><g stroke-opacity="0" fill-opacity="0" stroke-linecap="round" transform="translate(348.5222232707383 147.77106728319245) rotate(0 37.5010547119673 37.50105471196747)"><path d="M23 3.69 C29.24 0.48, 38.75 -0.05, 45.89 1.45 C53.03 2.95, 61.02 7.34, 65.85 12.69 C70.68 18.04, 74.18 26.35, 74.86 33.55 C75.54 40.75, 73.49 49.5, 69.94 55.88 C66.38 62.25, 60.04 68.86, 53.52 71.79 C47 74.71, 38.02 74.94, 30.84 73.43 C23.65 71.92, 15.43 67.94, 10.42 62.75 C5.41 57.56, 1.77 49.58, 0.79 42.3 C-0.19 35.02, -0.22 25.85, 4.54 19.07 C9.31 12.29, 24.16 4.57, 29.41 1.62 C34.65 -1.33, 35.9 0.83, 36.01 1.38 M44.72 2.12 C51.43 2.98, 59.1 6.76, 64.05 11.85 C68.99 16.94, 73.63 25.35, 74.4 32.65 C75.17 39.95, 72.3 49.33, 68.67 55.64 C65.05 61.95, 59.35 67.31, 52.65 70.53 C45.96 73.76, 35.45 76.17, 28.49 74.98 C21.53 73.79, 15.81 68.83, 10.89 63.38 C5.97 57.93, 0.12 49.81, -1.03 42.29 C-2.18 34.76, -0.05 24.66, 4 18.24 C8.06 11.82, 16.53 6.7, 23.28 3.75 C30.03 0.79, 40.84 0.91, 44.51 0.51 C48.18 0.11, 45.37 0.66, 45.29 1.35" stroke="#1e1e1e" stroke-width="1" fill="none"></path></g><g stroke-linecap="round"><g transform="translate(367.59189149260055 199.0585966948638) rotate(0 17.45587124078247 -15.543952035238021)"><path d="M-1.02 0.37 C-0.57 -2.9, 0.77 -14.4, 3.8 -19.49 C6.84 -24.58, 12.76 -29.72, 17.2 -30.16 C21.63 -30.6, 27.37 -26.81, 30.41 -22.12 C33.44 -17.44, 40.45 -5.7, 35.41 -2.04 C30.38 1.62, 6.13 -0.62, 0.18 -0.16 M0.65 -0.48 C0.84 -4.06, 0.13 -15.77, 2.8 -21.03 C5.47 -26.28, 11.95 -31.47, 16.66 -32.01 C21.37 -32.56, 28.15 -29.37, 31.07 -24.3 C34 -19.23, 39.1 -5.43, 34.21 -1.59 C29.31 2.24, 7.35 -1.51, 1.69 -1.28" stroke="#1e1e1e" stroke-width="1" fill="none"></path></g></g><mask></mask><g stroke-linecap="round" transform="translate(376.42184121825267 151.75810090796358) rotate(0 8.937406075280705 7.8202303158705035)"><path d="M10.06 0.24 C11.82 0.25, 14.04 1.25, 15.33 2.39 C16.61 3.53, 17.58 5.4, 17.78 7.07 C17.98 8.73, 17.55 11.06, 16.53 12.38 C15.52 13.7, 13.53 14.57, 11.69 14.99 C9.84 15.41, 7.22 15.49, 5.46 14.9 C3.69 14.31, 1.99 12.95, 1.1 11.44 C0.21 9.93, -0.41 7.47, 0.12 5.84 C0.65 4.21, 2.55 2.57, 4.3 1.65 C6.05 0.74, 9.52 0.57, 10.65 0.37 C11.77 0.16, 11.12 0.34, 11.07 0.43 M8.33 -0.29 C10.17 -0.56, 13.07 0.31, 14.53 1.39 C15.99 2.47, 16.76 4.57, 17.1 6.2 C17.45 7.83, 17.57 9.6, 16.61 11.16 C15.64 12.73, 13.03 14.86, 11.34 15.59 C9.65 16.32, 8.26 16.13, 6.46 15.55 C4.66 14.97, 1.69 13.69, 0.55 12.13 C-0.59 10.56, -0.9 7.84, -0.37 6.16 C0.16 4.48, 2.25 3.1, 3.75 2.05 C5.24 1, 7.71 0.18, 8.6 -0.16 C9.48 -0.49, 9.04 -0.12, 9.07 0.05" stroke="#1e1e1e" stroke-width="1" fill="none"></path></g><g transform="translate(363.434969034256 202.72674154083666) rotate(0 21.924278259277344 8.02970077075986)"><text x="21.924278259277344" y="11.254428600297" font-family="Virgil, Segoe UI Emoji" font-size="12.847521233215751px" fill="#1e1e1e" text-anchor="middle" style="white-space: pre;" direction="ltr" dominant-baseline="alphabetic">User 3</text></g></svg>